<?xml version="1.0" encoding="utf-8"?>
<!-- Generator: Adobe Illustrator 24.1.1, SVG Export Plug-In . SVG Version: 6.00 Build 0)  -->
<svg version="1.1" id="Layer_1" xmlns="http://www.w3.org/2000/svg" xmlns:xlink="http://www.w3.org/1999/xlink" x="0px" y="0px"
	 viewBox="0 0 512 512" style="enable-background:new 0 0 512 512;" xml:space="preserve">
<g>
	<path d="M459.5,226c-26.8,0-75.5-9.7-90.6-24.8c-9.3-9.3-11.5-21-13.3-30.3c-2.2-11.5-3.5-15-8.6-17.2
		c-23.3-10-56.6-15.7-91.5-15.7c-34.5,0-67.5,5.7-90.5,15.5c-5,2.1-6.3,5.6-8.4,17.1c-1.7,9.4-3.9,21.1-13.2,30.4
		c-8.4,8.5-26.2,14.3-39.5,17.7c-17.2,4.4-35.7,6.9-50.6,6.9c-17.1,0-28.7-3.2-35.4-9.9C7.8,205.4,1.3,191.6,0.2,177.7
		c-1-11.8,1.3-29.2,17.5-45.4c26.4-26.3,61.8-46.9,105.3-61c40.1-13,85.6-19.9,131.8-19.9c46.5,0,92.5,7,132.9,20.2
		c43.9,14.3,79.7,35.1,106.3,61.7c27.1,27.1,20.4,63,0.3,83C487.8,222.8,476.4,226,459.5,226z M255.5,112.2
		c38.9,0,75,6.3,101.7,17.8c18.4,7.9,21.5,24.2,23.7,36c1.3,7.1,2.5,13.2,6.2,16.9c6.5,6.5,44,17.3,72.4,17.3
		c12.4,0,16.3-2.1,16.8-2.4c8-8.1,18-28-0.4-46.5c-46.5-46.5-129.2-74.3-221-74.3c-91.1,0-172.9,27.5-218.9,73.4
		c-7.4,7.4-10.8,15.9-10.1,25.1c0.6,7.8,4.4,15.8,10,21.5c0.5,0.3,4.5,2.5,17.3,2.5c28.3,0,65.5-10.6,71.9-17
		c3.6-3.6,4.8-9.8,6.1-16.9c2.2-11.9,5.2-28.2,23.6-36.1C181.3,118.4,217,112.2,255.5,112.2L255.5,112.2z"/>
	<path d="M423.6,460.7H88.4c-17.3,0-33.3-6.8-44.9-19.2c-11.7-12.3-17.6-28.7-16.6-45.9c0.1-2,3-49,32.7-96.4
		c17.6-28,40.9-50.4,69.2-66.4C164,213,206.7,202.9,256,202.9s92.1,10.1,127.1,29.9c28.4,16,51.7,38.4,69.2,66.4
		c29.7,47.4,32.6,94.4,32.7,96.4c1,17.3-4.9,33.6-16.6,45.9C456.8,453.9,440.9,460.7,423.6,460.7z M256,228.7
		c-80.3,0-138.9,28-174,83.3c-26.5,41.8-29.4,84.6-29.4,85.1c-0.6,10.1,2.9,19.6,9.6,26.8c6.8,7.1,16.1,11.1,26.2,11.1h335.1
		c10.1,0,19.4-3.9,26.2-11.1c6.8-7.1,10.2-16.7,9.6-26.8c0-0.4-2.9-43.2-29.4-85C394.9,256.7,336.4,228.7,256,228.7L256,228.7z"/>
	<path d="M256,409.1c-42.6,0-77.3-34.7-77.3-77.3c0-42.6,34.7-77.3,77.3-77.3c42.6,0,77.3,34.7,77.3,77.3
		C333.3,374.4,298.6,409.1,256,409.1z M256,280.2c-28.4,0-51.6,23.1-51.6,51.6c0,28.4,23.1,51.6,51.6,51.6
		c28.4,0,51.6-23.1,51.6-51.6C307.6,303.4,284.4,280.2,256,280.2z"/>
</g>
</svg>
